<svg width="100" height="100" viewBox="0 0 100 100" fill="none" xmlns="http://www.w3.org/2000/svg">
<path d="M48.4375 6.47187C57.0478 6.15957 65.5573 8.40793 72.8896 12.9325C80.2219 17.4572 86.0475 24.0548 89.6297 31.8908C93.2118 39.7268 94.3894 48.4491 93.0137 56.9545C91.6379 65.4599 87.7705 73.3662 81.9006 79.6733C76.0308 85.9804 68.4222 90.405 60.0374 92.3873C51.6526 94.3696 42.8682 93.8206 34.7955 90.8097C26.7227 87.7989 19.7243 82.4614 14.6854 75.4726C9.64653 68.4837 6.79361 60.1574 6.48752 51.5469C6.08651 40.0102 10.278 28.7856 18.1423 20.3353C26.0067 11.8851 36.9018 6.89937 48.4375 6.47187Z" fill="#FAFAFA"/>
<path d="M73.3468 36.1875L65.1468 56.7625L56.8969 36.1875H50.1469L61.7093 64.2688L53.4843 84.0625L59.375 85.2375L79.7125 36.175H73.3468V36.1875Z" fill="black"/>
<path d="M37.3187 41.3906C38.9454 41.3586 40.5442 41.8157 41.9081 42.7027C43.2721 43.5897 44.3383 44.8657 44.9687 46.3656L45.0812 46.6125L50.8344 44.675L50.7094 44.3812C49.6148 41.7481 47.7511 39.5066 45.362 37.9499C42.9729 36.3932 40.1696 35.5938 37.3187 35.6562C35.375 35.5943 33.439 35.9274 31.6277 36.6353C29.8165 37.3433 28.1677 38.4114 26.7812 39.775C25.3928 41.0987 24.2951 42.697 23.558 44.4682C22.8209 46.2393 22.4606 48.1445 22.5 50.0625C22.461 51.9746 22.8214 53.8737 23.558 55.6387C24.2947 57.4036 25.3914 58.9954 26.7781 60.3125C28.1643 61.6766 29.813 62.7453 31.6242 63.4538C33.4355 64.1623 35.3717 64.4959 37.3156 64.4343C40.1664 64.4963 42.9695 63.6967 45.3585 62.1401C47.7476 60.5834 49.6114 58.3422 50.7062 55.7093L50.8312 55.4156L45.0687 53.475L44.9594 53.7343C44.3448 55.2433 43.2827 56.5278 41.9162 57.415C40.5496 58.3022 38.9441 58.7495 37.3156 58.6968C36.2002 58.7233 35.0914 58.5187 34.0588 58.096C33.0263 57.6733 32.0923 57.0416 31.3156 56.2406C30.5188 55.4295 29.893 54.4666 29.4754 53.4091C29.0578 52.3516 28.8568 51.221 28.8844 50.0843C28.8571 48.9393 29.0581 47.8003 29.4755 46.7337C29.8929 45.6671 30.5184 44.6943 31.3156 43.8718C32.0901 43.0673 33.0234 42.4327 34.0564 42.0082C35.0893 41.5837 36.1992 41.3787 37.3156 41.4062L37.3187 41.3906Z" fill="black"/>
<path d="M9.25308 61.0844C8.25229 57.4619 7.74563 53.7207 7.74683 49.9625C7.8063 41.463 10.4272 33.179 15.2673 26.192C20.1074 19.205 26.9418 13.8398 34.8781 10.7969L37.0062 16.25C30.1745 18.8686 24.2913 23.4867 20.1251 29.501C15.9589 35.5153 13.7034 42.6463 13.6531 49.9625C13.6515 53.1958 14.0867 56.4145 14.9468 59.5312L9.25308 61.0844Z" fill="#58D09E"/>
<path d="M34.5938 10.9376C44.3546 7.15199 55.1687 7.09923 64.966 10.7894C74.7634 14.4795 82.8556 21.6533 87.6938 30.9376L82.4406 33.6094C78.2784 25.618 71.3153 19.4422 62.884 16.2641C54.4526 13.086 45.1454 13.1288 36.7438 16.3844L34.5938 10.9376Z" fill="#58D09E"/>
<path d="M69.4531 80.4875C77.143 75.6468 82.7276 68.0874 85.095 59.3145C87.4623 50.5417 86.4388 41.1991 82.2281 33.1469L87.4625 30.4407C92.3641 39.7932 93.5589 50.6501 90.8087 60.8448C88.0584 71.0394 81.5653 79.8223 72.625 85.4407L69.4531 80.5001V80.4875Z" fill="url(#paint0_linear_66_92)"/>
<path d="M54.6875 81.0906L53.25 84.5437C53.1115 84.8789 52.8804 85.1677 52.5838 85.3763C52.2872 85.585 51.9373 85.7048 51.575 85.7219C51.0906 85.7406 50.6 85.7531 50.1031 85.7531C41.8661 85.7427 33.8725 82.9598 27.4099 77.8527C20.9473 72.7455 16.3921 65.6115 14.4781 57.6L8.71875 58.8906C10.8526 68.1192 16.0388 76.3575 23.4375 82.2719C30.9945 88.2956 40.3672 91.5854 50.0313 91.6062H50.1188C50.6875 91.6062 51.2469 91.6062 51.8125 91.5687C53.2994 91.5083 54.7381 91.0244 55.9594 90.1741C57.1807 89.3238 58.1336 88.1423 58.7062 86.7687L60.5813 82.2562L54.6875 81.0906Z" fill="url(#paint1_linear_66_92)"/>
<defs>
<linearGradient id="paint0_linear_66_92" x1="87.6071" y1="35.6931" x2="74.9738" y2="88.416" gradientUnits="userSpaceOnUse">
<stop stop-color="#58D09E"/>
<stop offset="1" stop-color="#D2D2D2" stop-opacity="0"/>
</linearGradient>
<linearGradient id="paint1_linear_66_92" x1="16.0093" y1="67.377" x2="58.3038" y2="92.6206" gradientUnits="userSpaceOnUse">
<stop stop-color="#58D09E"/>
<stop offset="1"/>
</linearGradient>
</defs>
</svg>
