<svg width="100" height="100" viewBox="0 0 100 100" fill="none" xmlns="http://www.w3.org/2000/svg">
<path d="M12.5 12.5H87.5C88.6051 12.5 89.6649 12.939 90.4463 13.7204C91.2277 14.5018 91.6667 15.5616 91.6667 16.6667V83.3333C91.6667 84.4384 91.2277 85.4982 90.4463 86.2796C89.6649 87.061 88.6051 87.5 87.5 87.5H12.5C11.395 87.5 10.3352 87.061 9.55376 86.2796C8.77236 85.4982 8.33337 84.4384 8.33337 83.3333V16.6667C8.33337 15.5616 8.77236 14.5018 9.55376 13.7204C10.3352 12.939 11.395 12.5 12.5 12.5ZM29.1667 64.5833V47.9167L37.5 56.25L45.8334 47.9167V64.5833H54.1667V35.4167H45.8334L37.5 43.75L29.1667 35.4167H20.8334V64.5833H29.1667ZM75 52.0833V35.4167H66.6667V52.0833H58.3334L70.8334 64.5833L83.3334 52.0833H75Z" fill="black"/>
</svg>
