<svg width="100" height="100" viewBox="0 0 100 100" fill="none" xmlns="http://www.w3.org/2000/svg">
<path d="M49.1719 40.5344C50.3773 40.877 51.49 41.4871 52.4271 42.3192C53.3642 43.1514 54.1016 44.1841 54.5844 45.3406L57.9219 46.2781C57.7718 44.4508 57.0928 42.7067 55.968 41.2589C54.8431 39.8111 53.321 38.7221 51.5875 38.125C49.8503 37.7034 48.0253 37.828 46.3615 38.4818C44.6977 39.1356 43.2761 40.2867 42.2906 41.7781C43.2609 41.0504 44.3873 40.5586 45.5806 40.3416C46.7739 40.1247 48.0013 40.1885 49.1656 40.5281L49.1719 40.5344ZM75.7344 45.3719C73.9983 44.9485 72.1738 45.0716 70.5103 45.7244C68.8468 46.3771 67.4255 47.5277 66.4406 49.0187C67.4116 48.2923 68.5386 47.8025 69.7321 47.5882C70.9256 47.374 72.1526 47.4411 73.3156 47.7844C74.5247 48.1249 75.6413 48.734 76.5823 49.5662C77.5232 50.3984 78.2642 51.4322 78.75 52.5906L82.0937 53.5281C81.9446 51.6978 81.2659 49.9506 80.1406 48.4995C79.0152 47.0484 77.4918 45.9562 75.7562 45.3562L75.7344 45.3719ZM72.425 62.5L44.6594 54.7375C44.9633 55.9701 45.4533 57.1493 46.1125 58.2344L69.4906 64.7687C70.5764 64.1631 71.5655 63.3984 72.425 62.5ZM53.175 79.2062C31.1906 73.3125 33.8469 45.3 37.4062 32.0187C38.4765 27.8232 39.8874 23.7221 41.625 19.7562C40.8812 19.6031 40.2625 19.9969 39.6531 21.2344C37.6908 25.4849 36.1329 29.9106 35 34.4531C31.4437 47.725 28.7844 75.7375 50.7687 81.6406C61.1312 84.4156 69.2062 80.1969 75.2219 73.5719C72.3772 76.3797 68.8386 78.3827 64.967 79.3763C61.0955 80.37 57.0297 80.3189 53.1844 79.2281L53.175 79.2062Z" fill="#2D4552"/>
<path d="M41.0281 64.4001V58.7501L25.3125 63.2001C25.8878 60.9762 27.0648 58.9539 28.7142 57.3552C30.3637 55.7565 32.4217 54.6432 34.6625 54.1376C36.7216 53.5157 38.899 53.3914 41.0156 53.7751V30.5876H48.8781C48.2267 28.5025 47.431 26.4653 46.4968 24.4907C45.3468 22.1469 44.1656 23.7001 41.4968 25.9407C37.4174 29.1716 32.7071 31.5135 27.6687 32.8157C22.6643 34.2245 17.4198 34.5662 12.275 33.8188C8.83746 33.2282 7.04996 32.4751 7.21871 35.0688C7.53479 38.6504 8.18768 42.1941 9.16871 45.6532C11.8843 55.8594 20.8656 75.5251 37.8343 70.9657C41.7526 69.9991 45.2009 67.6736 47.5656 64.4032L41.0281 64.4001ZM15.6843 45.8001L27.7437 42.6251C27.6084 43.9729 27.0718 45.2492 26.2032 46.2888C25.3347 47.3284 24.1742 48.0834 22.8718 48.4563C21.5454 48.7705 20.1556 48.686 18.877 48.2135C17.5983 47.7409 16.4877 46.9014 15.6843 45.8001Z" fill="#E2574C"/>
<path d="M86.4156 30.8562C79.7515 31.8436 72.9543 31.4177 66.4656 29.6062C59.9378 27.9329 53.8356 24.9036 48.5562 20.7156C45.0906 17.8125 43.5562 15.7968 42.0687 18.8406C40.1047 23.0849 38.5437 27.5043 37.4062 32.0406C33.85 45.3125 31.1937 73.325 53.175 79.2281C75.1562 85.1312 86.8562 59.5406 90.4125 46.2531C91.6924 41.7596 92.5493 37.1562 92.9718 32.5031C93.1968 29.1125 90.8687 30.0968 86.4093 30.8781L86.4156 30.8562ZM42.2468 41.8375C43.2326 40.3326 44.6583 39.1681 46.3298 38.5027C48.0012 37.8372 49.8371 37.7032 51.5875 38.1187C53.3233 38.7169 54.847 39.8082 55.972 41.2591C57.0971 42.71 57.7747 44.4574 57.9218 46.2875L42.2468 41.8375ZM56.5906 66.0156C53.7762 65.3758 51.185 63.9929 49.087 62.0109C46.989 60.0288 45.4611 57.5203 44.6625 54.7468L72.425 62.5C70.3812 64.5124 67.8121 65.9085 65.0117 66.5286C62.2113 67.1487 59.2929 66.9677 56.5906 66.0062V66.0156ZM66.4062 49.0781C67.3929 47.5761 68.8181 46.4143 70.4881 45.7506C72.1582 45.087 73.9921 44.9536 75.7406 45.3687C77.4762 45.9687 78.9996 47.0609 80.1249 48.512C81.2503 49.9631 81.9289 51.7103 82.0781 53.5406L66.4062 49.0781Z" fill="#2EAD33"/>
<path d="M35.5406 60.3125L25.3125 63.2001C25.8572 61.1018 26.9421 59.183 28.4592 57.6346C29.9764 56.0862 31.8727 54.9624 33.9594 54.375L28.1719 32.6594L27.6719 32.8125C22.6675 34.2214 17.423 34.5632 12.2781 33.8157C8.84063 33.225 7.05313 32.4719 7.22188 35.0657C7.53798 38.6472 8.19087 42.191 9.17188 45.65C11.8875 55.8563 20.8688 75.5219 37.8375 70.9625L38.3375 70.8063L35.5406 60.3125ZM15.6844 45.8L27.7438 42.625C27.6085 43.9729 27.0718 45.2492 26.2033 46.2888C25.3347 47.3284 24.1742 48.0834 22.8719 48.4563C21.5454 48.7705 20.1557 48.686 18.877 48.2135C17.5984 47.7409 16.4877 46.9013 15.6844 45.8Z" fill="#D65348"/>
<path d="M57.0562 66.1312L56.5874 66.0187C53.7731 65.3789 51.1818 63.996 49.0838 62.014C46.9858 60.0319 45.4579 57.5234 44.6593 54.7499L58.9749 58.7499L66.5624 29.6218L66.4718 29.5968C59.9441 27.9234 53.8419 24.8941 48.5625 20.7062C45.0968 17.8031 43.5624 15.7874 42.0749 18.8312C40.1116 23.0758 38.5506 27.4951 37.4125 32.0312C33.8562 45.3031 31.1999 73.3156 53.1812 79.2187L53.6312 79.3187L57.0562 66.1312ZM42.2468 41.8406C43.2326 40.3357 44.6583 39.1712 46.3297 38.5058C48.0012 37.8403 49.8371 37.7063 51.5874 38.1218C53.3232 38.72 54.8469 39.8113 55.972 41.2622C57.0971 42.7131 57.7747 44.4605 57.9218 46.2906L42.2468 41.8406Z" fill="#1D8D22"/>
</svg>
