<svg width="100" height="100" viewBox="0 0 100 100" fill="none" xmlns="http://www.w3.org/2000/svg">
<g clip-path="url(#clip0_145_8)">
<path d="M76.5625 0H23.4375C10.4933 0 0 10.4933 0 23.4375V76.5625C0 89.5067 10.4933 100 23.4375 100H76.5625C89.5067 100 100 89.5067 100 76.5625V23.4375C100 10.4933 89.5067 0 76.5625 0Z" fill="#764ABC"/>
<path d="M65.07 64.6871C67.9532 64.3887 70.1403 61.9032 70.0407 58.9207C69.9414 55.9383 67.4559 53.5524 64.4735 53.5524H64.2746C61.1926 53.6516 58.8067 56.2363 58.9059 59.3184C59.0055 60.8098 59.602 62.102 60.4965 62.9969C57.1164 69.6578 51.9469 74.5293 44.1922 78.6055C38.9231 81.3891 33.4551 82.3832 27.9871 81.6875C23.5133 81.091 20.034 79.1024 17.8465 75.8219C14.6653 70.9504 14.3672 65.6813 17.0512 60.4121C18.9403 56.634 21.9227 53.8504 23.8118 52.4586C23.4141 51.1664 22.8176 48.9789 22.5192 47.3883C8.10394 57.8274 9.59496 71.9446 13.9692 78.6055C17.2504 83.5762 23.911 86.6582 31.268 86.6582C33.2563 86.6582 35.2446 86.4594 37.2328 85.9621C49.9586 83.477 59.602 75.9211 65.07 64.6871Z" fill="white"/>
<path d="M82.5672 52.3593C75.0117 43.5109 63.877 38.6398 51.1516 38.6398H49.5609C48.666 36.85 46.777 35.657 44.6895 35.657H44.4906C41.4086 35.7566 39.0227 38.3414 39.1219 41.4234C39.2215 44.4058 41.7066 46.7917 44.6895 46.7917H44.8883C47.0754 46.6925 48.9645 45.3007 49.7598 43.4117H51.5492C59.1047 43.4117 66.2629 45.5988 72.725 49.8738C77.6957 53.1546 81.275 57.4296 83.2633 62.5992C84.9535 66.7746 84.8539 70.8507 83.0645 74.3304C80.2809 79.5996 75.6082 82.4828 69.4441 82.4828C65.4676 82.4828 61.6899 81.2898 59.7012 80.3949C58.6078 81.389 56.6195 82.9796 55.2277 83.9738C59.5023 85.9621 63.877 87.0558 68.0524 87.0558C77.5965 87.0558 84.6551 81.7867 87.3395 76.5175C90.2227 70.7515 90.0238 60.8097 82.5672 52.3593Z" fill="white"/>
<path d="M32.0632 66.3773C32.1628 69.3598 34.648 71.7457 37.6308 71.7457H37.8296C40.9113 71.6461 43.2976 69.0613 43.198 65.9793C43.0988 62.9969 40.6132 60.6109 37.6308 60.6109H37.4316C37.2332 60.6109 36.9347 60.6109 36.7363 60.7105C32.6597 53.95 30.9699 46.593 31.5664 38.6398C31.964 32.675 33.9523 27.5051 37.432 23.2297C40.3148 19.5516 45.8824 17.7621 49.6601 17.6625C60.1984 17.4637 64.6722 30.5867 64.9703 35.8559C66.2628 36.1543 68.45 36.8504 69.9414 37.3473C68.7484 21.2422 58.8066 12.8906 49.2625 12.8906C40.3148 12.8906 32.0632 19.3527 28.7824 28.8969C24.2093 41.6223 27.1918 53.8504 32.7589 63.4941C32.2621 64.1898 31.9636 65.2836 32.0632 66.3773Z" fill="white"/>
</g>
<defs>
<clipPath id="clip0_145_8">
<rect width="100" height="100" fill="white"/>
</clipPath>
</defs>
</svg>
