<svg width="100" height="100" viewBox="0 0 100 100" fill="none" xmlns="http://www.w3.org/2000/svg">
<path d="M50.5344 58.4375C49.0313 59.1281 47.3844 60.0281 44.0875 61.8375C42.8375 62.5406 41.5313 63.2437 40.3157 63.9062C40.2313 63.8219 40.1438 63.7156 40.0594 63.6281C33.5375 56.6594 21.475 51.7375 21.9875 42.3781C22.1782 38.9687 23.35 30.0187 45.1532 19.15C63.0969 10.3062 77.375 12.7562 79.8407 18.1906C83.3844 25.9375 72.1875 40.3531 53.6563 42.4437C51.6053 42.8597 49.4871 42.8095 47.4581 42.2967C45.4292 41.7839 43.5414 40.8217 41.9344 39.4812C40.9532 38.4156 40.8063 38.3531 40.4438 38.5656C39.8469 38.8781 40.2313 39.8437 40.4438 40.3969C41.1507 41.6767 42.107 42.8018 43.2561 43.7057C44.4053 44.6096 45.7241 45.2739 47.1344 45.6594C54.4269 47.2356 62.0303 46.4825 68.8719 43.5062C80.1032 39.1594 88.8719 27.075 86.3032 16.9437C83.725 6.67186 66.675 3.28436 50.5438 9.01561C40.4415 12.42 31.1079 17.7791 23.075 24.7875C14.1875 33.1 12.7813 40.325 13.3563 43.35C15.425 54.0906 30.2313 61.0812 36.1688 66.2594C35.8563 66.4312 35.5938 66.5719 35.3594 66.7062C32.3969 68.1781 21.1032 74.0812 18.2875 80.325C15.0907 87.4 18.8 92.4719 21.25 93.1531C24.9422 94.0375 28.8184 93.7468 32.3373 92.3215C35.8562 90.8962 38.8421 88.4076 40.8782 85.2031C42.6071 82.5458 43.6688 79.5103 43.973 76.3547C44.2771 73.1991 43.8147 70.0167 42.625 67.0781C43.3269 66.5182 44.0755 66.0195 44.8625 65.5875C46.375 64.6937 47.8157 63.8125 49.0938 63.1312C53.47 61.0814 58.2457 60.026 63.0782 60.0406C73.2219 61.2344 75.225 67.5625 74.8407 70.2281C74.6608 71.1739 74.2805 72.0701 73.7253 72.8566C73.1701 73.643 72.4529 74.3014 71.6219 74.7875C70.9188 75.2344 70.6844 75.3844 70.7469 75.7031C70.8313 76.1719 71.1719 76.15 71.7688 76.0656C73.2928 75.5839 74.6355 74.6525 75.6205 73.3937C76.6054 72.1349 77.1866 70.6076 77.2875 69.0125C77.6 62.7625 71.6407 55.9062 61.0907 55.9687C57.9317 55.9742 54.8042 56.5973 51.8844 57.8031C51.4157 57.9969 50.9605 58.2052 50.5188 58.4281L50.5344 58.4375ZM35.4563 82.9344C32.0875 86.6 27.4 87.9844 25.375 86.8125C23.1875 85.5625 24.0532 80.1406 28.1875 76.2625C30.6362 74.0563 33.2828 72.0802 36.0938 70.3594C36.5844 70.0469 37.3094 69.6344 38.1813 69.1094L38.4157 68.9812L38.9282 68.6687C39.6655 71.1409 39.7326 73.7647 39.1226 76.2713C38.5125 78.778 37.2472 81.0775 35.4563 82.9344Z" fill="#CD6799"/>
</svg>
