<svg width="100" height="100" viewBox="0 0 100 100" fill="none" xmlns="http://www.w3.org/2000/svg">
<path d="M67.5583 28.175L67.2458 29.8042C66.7625 32.8917 66.9375 33.775 68.2625 34.9209L69.5417 35.9792L68.2167 41.8875C67.425 45.4125 66.4542 48.3667 65.8375 49.3375C65.3083 50.175 64.6917 51.4084 64.5583 52.0709C64.3375 52.8625 63.5875 53.6584 62.4417 54.3625C61.4292 54.9375 59.4417 56.4792 58.0333 57.7167C56.9083 58.7292 56.1333 59.35 55.7125 59.6167L54.3375 60.7042C53.9839 61.2286 53.7179 61.807 53.55 62.4167C53.4542 62.8625 53.5083 63.1584 53.65 63.375C53.7875 63.5834 54.025 63.7292 54.35 63.8209C54.7347 63.9111 55.1307 63.9434 55.525 63.9167C56.4169 63.8558 57.2998 63.6993 58.1583 63.45C58.45 63.3709 58.6792 63.2959 58.8792 63.2292C59.1875 62.85 59.9 62.1334 61.1625 60.8875C64.5125 57.5834 65.7917 55.775 64.4708 56.2625C63.9833 56.4375 64.2042 55.9959 65.0417 55.1125C66.8083 53.3917 67.8208 50.7917 69.9375 42.6375C71.6125 36.2 71.6125 36.1084 72.8458 36.1084C73.425 36.1084 75.0625 36.2084 75.0625 36.2084V28.175H71.3042H67.5583ZM83.5542 41.3625C83.2875 41.3625 82.8458 41.7625 82.5833 42.2042C82.1 42.9959 82.6708 43.4792 89.9458 48.0209C94.2667 50.7584 97.75 53.0917 97.6625 53.2709C97.575 53.4 94.0458 55.6959 89.8167 58.3417C82.1417 63.1 82.1 63.1459 82.8042 64.1167C83.6875 65.2625 82.8042 65.6584 92.7667 59.4417L100 54.8125V51.3292L91.9292 46.3459C87.5667 43.6125 83.775 41.4084 83.5542 41.3625ZM16.5333 41.85C16.3125 41.85 12.5208 44.1 8.15833 46.7875L0 51.7709V55.2542L8.1125 60.325C12.6125 63.1 16.4042 65.3959 16.5792 65.3959C16.7542 65.3959 17.1083 64.9959 17.4625 64.5125C17.9917 63.675 17.5458 63.3209 10.0958 58.6042C3 54.15 2.25 53.5334 2.95833 53.05C3.4 52.7417 6.75 50.6667 10.3667 48.4209C18.6125 43.35 18.1708 43.7 17.5083 42.6417C17.2458 42.2042 16.8 41.8084 16.5375 41.85H16.5333ZM52.7167 41.9459C51.5 41.9375 48.8833 43.7917 41.05 50.1875C40.7125 50.9917 40.6833 51.5459 40.8375 51.9042C40.9375 52.15 41.1208 52.3209 41.375 52.4459C41.625 52.5709 41.95 52.6459 42.3083 52.675C43.0208 52.7375 43.8625 52.625 44.5417 52.4917L45 52.3875C45.1569 52.1772 45.3629 52.0084 45.6 51.8959C46.0833 51.6292 48.1125 49.7792 50.1417 47.7959C53.7125 44.1792 54.55 42.5459 53.0958 42.0167C52.9765 41.9692 52.8451 41.9452 52.7167 41.9459ZM61.8667 44.4584C60.7958 44.4875 58.8667 45.7292 55.5625 48.3667C53.9042 49.7125 52.8542 50.4375 52.2917 50.5875L50.1083 52.3125C49.2875 53.8125 49.1667 54.7417 49.3833 55.2542C49.4376 55.3806 49.5163 55.4951 49.615 55.5909C49.7137 55.6867 49.8304 55.7621 49.9583 55.8125C50.2767 55.9382 50.6161 56.0019 50.9583 56C51.7762 55.9913 52.5891 55.8722 53.375 55.6459C53.7846 55.536 54.1892 55.4081 54.5875 55.2625L54.7083 55.2125L54.9292 55.0959C55.3458 54.5584 56.3042 53.5459 57.5042 52.3792C61.2958 48.7209 63.2333 46.1209 62.8375 45.15C62.6583 44.6792 62.35 44.4417 61.8667 44.4584ZM51.7667 48.9584C51.4583 48.9917 50.7667 49.525 49.5208 50.6167C47.7208 52.2084 45.7583 53.125 45.0792 52.7167C44.9213 52.7524 44.763 52.7857 44.6042 52.8167C43.9125 52.9542 43.05 53.0667 42.2792 53.0042C41.916 52.9822 41.56 52.8932 41.2292 52.7417C40.9171 52.5991 40.6681 52.3471 40.5292 52.0334C40.375 51.6584 40.375 51.1917 40.55 50.5959L37.8417 52.8209L31.7125 57.8917V66.1125L51.7958 50.2917C51.7919 50.1185 51.8144 49.9457 51.8625 49.7792C52.0167 49.2209 52.0083 48.9375 51.7667 48.9625V48.9584ZM60.4083 51.6209C60.1042 51.6209 59.5958 52.05 58.7833 52.9125C57.6792 54.0917 55.9417 55.2334 55.0208 55.4667L54.8792 55.5417C54.728 55.6041 54.5751 55.6625 54.4208 55.7167C54.1708 55.8 53.8458 55.9 53.4708 56C52.7208 56.2042 51.7875 56.3917 50.9542 56.3709C50.5613 56.3704 50.1722 56.294 49.8083 56.1459C49.4654 56.0045 49.1905 55.7357 49.0417 55.3959C48.8 54.8167 48.8958 54.0042 49.425 52.85L31.7083 66.8042V71.8251H39.4917L56 58.8584C56.4292 58.3834 57.075 57.7334 57.9458 56.9209C60.2792 54.7584 60.8083 54.0125 60.8083 52.9084C60.8083 52.05 60.7125 51.6167 60.4083 51.6167V51.6209ZM64.3375 59.7459L62.925 61.1542C62.1333 61.9042 60.7208 62.8292 59.7542 63.225L59.5625 63.3084L59.55 63.3292L59.5083 63.3709C59.4708 63.4 59.4542 63.4042 59.425 63.4167C59.0391 63.5628 58.6471 63.6921 58.25 63.8042C57.3672 64.0612 56.4591 64.2218 55.5417 64.2834C55.1079 64.3112 54.6724 64.2733 54.25 64.1709C53.8834 64.0902 53.5598 63.8764 53.3417 63.5709C53.1417 63.2625 53.0833 62.85 53.1958 62.3417C53.2853 61.9798 53.4182 61.63 53.5917 61.3L40.2708 71.8251H57.9875L60.1042 69.4C63.0125 66.0084 64.3375 63.5834 64.3375 61.5084V59.7459Z" fill="#E4A951"/>
</svg>
