<svg width="100" height="100" viewBox="0 0 100 100" fill="none" xmlns="http://www.w3.org/2000/svg">
<path fill-rule="evenodd" clip-rule="evenodd" d="M18.4375 58.8969C17.3536 61.5005 16.7481 64.2783 16.65 67.0969C16.7996 68.8352 17.3924 70.5061 18.3719 71.95C20.2149 74.0838 22.4313 75.8639 24.9125 77.2031L40.9375 87.8719C42.9094 89.4412 45.1267 90.6744 47.5 91.5219C49.041 91.8887 50.6466 91.8887 52.1875 91.5219C54.5767 90.6848 56.8118 89.4601 58.8031 87.8969L75 77.2219C77.5065 75.8788 79.7481 74.0914 81.6157 71.9469C82.6021 70.4952 83.1944 68.812 83.3344 67.0625C83.228 64.221 82.6065 61.4225 81.5 58.8031L67.3344 14.2219C67.0182 12.7781 66.4467 11.4023 65.6469 10.1594C65.0644 9.45155 64.3117 8.90318 63.4594 8.56563C62.0353 8.17952 60.5538 8.05042 59.0844 8.18438H40.6406C39.1707 8.05076 37.6887 8.18308 36.2656 8.575C35.4113 8.91187 34.658 9.46286 34.0781 10.175C33.2818 11.418 32.7155 12.7941 32.4063 14.2375L18.4375 58.8969ZM59.8125 17.6469C60.4714 18.6944 60.9381 19.8511 61.1906 21.0625L73.3532 61.0125C68.7849 58.643 63.8815 56.9853 58.8125 56.0969L50.9094 29.3469C50.8608 29.1889 50.7751 29.0448 50.6594 28.9268C50.5437 28.8087 50.4013 28.7201 50.2443 28.6684C50.0874 28.6167 49.9202 28.6034 49.757 28.6295C49.5938 28.6557 49.4392 28.7206 49.3063 28.8188C49.1278 28.9493 48.9972 29.1349 48.9344 29.3469L41.1219 56.0875C36.0291 56.9741 31.1028 58.6383 26.5156 61.0219L38.7281 21.0719C38.9782 19.8582 39.4462 18.6999 40.1094 17.6531C40.5931 17.0595 41.2186 16.5973 41.9281 16.3094C43.1235 15.9863 44.3672 15.8804 45.6 15.9969H54.3281C55.562 15.8803 56.8067 15.9862 58.0032 16.3094C58.7148 16.5982 59.3416 17.0626 59.825 17.6594L59.8125 17.6469ZM50.3969 65.8125C54.1578 66.0303 57.8874 65.0178 61.0219 62.9281C61.3782 64.0498 61.5045 65.2318 61.3934 66.4034C61.2822 67.5751 60.9359 68.7122 60.375 69.7469C59.2221 71.7066 57.5487 73.3085 55.5407 74.375C53.4344 75.7125 51.6219 76.875 51.6219 79.9594C51.6193 80.9488 51.8427 81.9257 52.275 82.8156C50.8547 82.2258 49.6409 81.2282 48.7872 79.9489C47.9334 78.6697 47.4779 77.1661 47.4781 75.6281V75.4375C47.4781 73.3031 47.4781 70.675 44.4719 70.675C44.0528 70.6747 43.6377 70.7565 43.25 70.9156C42.4698 71.2387 41.8495 71.8579 41.525 72.6375C41.3639 73.0248 41.28 73.4399 41.2781 73.8594C39.2176 71.6091 38.1108 68.647 38.1906 65.5969C38.176 64.2768 38.3604 62.962 38.7375 61.6969C39.9875 64.0625 44.7375 65.8219 50.3969 65.8219V65.8125Z" fill="#FF5D01"/>
</svg>
