<svg width="100" height="100" viewBox="0 0 100 100" fill="none" xmlns="http://www.w3.org/2000/svg">
<g clip-path="url(#clip0_62_74)">
<path d="M100 77.45C98.5446 78.0005 96.9381 77.9993 95.4835 77.4466C94.0289 76.894 92.8269 75.8281 92.1042 74.45L77.7292 54.5709L75.6459 51.7917L58.9667 74.475C58.2875 75.7952 57.1507 76.8229 55.7688 77.3658C54.3869 77.9087 52.8546 77.9298 51.4584 77.425L72.95 48.5917L52.9584 22.5458C54.3959 22.0278 55.9679 22.021 57.4099 22.5264C58.8518 23.0318 60.0756 24.0187 60.875 25.3208L75.775 45.4458L90.7584 25.4042C91.4429 24.1075 92.58 23.1075 93.9535 22.5943C95.3271 22.0811 96.8413 22.0906 98.2084 22.6208L90.45 32.9167L79.9417 46.5958C79.6499 46.8562 79.4164 47.1752 79.2565 47.5321C79.0966 47.889 79.0139 48.2756 79.0139 48.6667C79.0139 49.0577 79.0966 49.4444 79.2565 49.8013C79.4164 50.1581 79.6499 50.4772 79.9417 50.7375L99.9584 77.4542L100 77.45ZM0.00838332 48.2334L1.75838 39.5875C6.56672 22.4917 26.1667 15.3792 39.65 25.9625C47.5459 32.1667 49.5167 40.95 49.1292 50.85H4.65005C3.92922 68.5292 16.6875 79.2042 33 73.75C35.6445 72.7981 38.0115 71.2052 39.889 69.1138C41.7666 67.0225 43.0961 64.498 43.7584 61.7667C44.6209 58.9917 46.0417 58.5167 48.65 59.3167C48.2154 62.7016 47.0188 65.9439 45.1503 68.7997C43.2819 71.6554 40.7901 74.0503 37.8625 75.8042C33.0268 78.4493 27.4785 79.4977 22.011 78.7995C16.5435 78.1013 11.4367 75.6922 7.42088 71.9167C3.45017 67.4475 1.05037 61.8021 0.58755 55.8417C0.58755 54.8625 0.254217 53.9459 0.0292167 53.0667C0.00893344 51.457 -0.000788988 49.8473 4.99845e-05 48.2375L0.00838332 48.2334ZM4.70422 47.0417H44.9292C44.6792 34.225 36.5917 25.1333 25.8042 25.05C13.7959 24.8833 5.20422 33.775 4.67505 46.9834L4.70422 47.0417Z" fill="black"/>
</g>
<defs>
<clipPath id="clip0_62_74">
<rect width="100" height="100" fill="white"/>
</clipPath>
</defs>
</svg>
