<svg width="100" height="100" viewBox="0 0 100 100" fill="none" xmlns="http://www.w3.org/2000/svg">
<path d="M89.65 6.25H10.35C8.08563 6.25 6.25 8.08563 6.25 10.35V89.65C6.25 91.9144 8.08563 93.75 10.35 93.75H89.65C91.9144 93.75 93.75 91.9144 93.75 89.65V10.35C93.75 8.08563 91.9144 6.25 89.65 6.25Z" fill="#3178C6"/>
<path fill-rule="evenodd" clip-rule="evenodd" d="M57.0157 74.2469V83.8344C58.7576 84.6942 60.6141 85.2993 62.5282 85.6313C64.74 86.0396 66.9852 86.2405 69.2344 86.2313C71.4265 86.2417 73.6137 86.0207 75.7594 85.5719C77.6859 85.1826 79.524 84.441 81.1813 83.3844C82.7198 82.3912 83.9879 81.0319 84.8719 79.4281C86.4551 76.1073 86.664 72.2959 85.4532 68.8219C84.9422 67.5228 84.1809 66.3368 83.2125 65.3313C82.1731 64.2621 80.9924 63.34 79.7032 62.5906C78.2189 61.7213 76.6767 60.9549 75.0875 60.2969C73.8375 59.7781 72.7125 59.274 71.7125 58.7844C70.8243 58.3591 69.9743 57.8583 69.1719 57.2875C68.5434 56.8469 67.9976 56.2989 67.5594 55.6688C67.1808 55.0966 66.9837 54.4235 66.9938 53.7375C66.9854 53.1061 67.1614 52.486 67.5 51.9531C67.8679 51.3954 68.3585 50.9293 68.9344 50.5906C69.6384 50.1762 70.4044 49.8776 71.2032 49.7063C72.1838 49.4884 73.1862 49.3835 74.1907 49.3938C75.0355 49.3967 75.8791 49.4572 76.7157 49.575C77.6191 49.6971 78.5129 49.882 79.3907 50.1281C80.2835 50.3756 81.1567 50.6889 82.0032 51.0656C82.8245 51.4318 83.6102 51.8732 84.35 52.3844V43.4375C82.8098 42.8548 81.2124 42.4358 79.5844 42.1875C77.6185 41.9014 75.6335 41.7667 73.6469 41.7844C71.4754 41.7727 69.3102 42.0192 67.1969 42.5188C65.2867 42.9552 63.4704 43.7311 61.8344 44.8094C60.3146 45.8218 59.0598 47.1838 58.175 48.7813C57.2374 50.5552 56.7735 52.5411 56.8282 54.5469C56.7589 57.1993 57.6326 59.7904 59.2938 61.8594C61.3319 64.1534 63.9018 65.9121 66.7782 66.9813C68.0907 67.5229 69.3146 68.0531 70.45 68.5719C71.4745 69.0277 72.4591 69.5681 73.3938 70.1875C74.1477 70.6779 74.8098 71.2966 75.35 72.0156C75.8251 72.6678 76.0771 73.4557 76.0688 74.2625C76.0731 74.8671 75.9179 75.4621 75.6188 75.9875C75.2865 76.5521 74.8194 77.0256 74.2594 77.3656C73.5587 77.7928 72.7921 78.1012 71.9907 78.2781C70.9467 78.5115 69.879 78.6217 68.8094 78.6063C66.7103 78.6024 64.6281 78.2323 62.6563 77.5125C60.5963 76.7692 58.686 75.6632 57.0157 74.2469ZM40.9094 50.3781H53.4094V42.4813H18.5563V50.3781H31V85.5469H40.9094V50.3781Z" fill="white"/>
</svg>
