<svg width="100" height="100" viewBox="0 0 100 100" fill="none" xmlns="http://www.w3.org/2000/svg">
<path d="M71.4375 34.6562L50.9688 64.2187C50.7517 64.5224 50.4461 64.7516 50.0938 64.875C49.7294 65.0012 49.3332 65.0012 48.9688 64.875C48.603 64.7613 48.2847 64.5308 48.0625 64.2187C47.8567 63.8926 47.7583 63.51 47.7813 63.125L48.5938 46.875L35.375 44.0625C35.0979 44.0013 34.8403 43.8725 34.625 43.6875C34.398 43.5089 34.225 43.271 34.125 43C34.0477 42.7241 34.0477 42.4322 34.125 42.1562C34.149 41.8705 34.2578 41.5984 34.4375 41.375L54.875 11.8125C55.0955 11.492 55.4133 11.251 55.7813 11.125C56.1354 11.0011 56.521 11.0011 56.875 11.125C57.2431 11.251 57.5608 11.492 57.7813 11.8125C57.9956 12.1232 58.0951 12.4989 58.0625 12.875L57.25 29.1875L70.4688 32C70.7557 32.06 71.0238 32.1887 71.25 32.375C71.4607 32.5687 71.6307 32.8024 71.75 33.0625C71.844 33.3351 71.8759 33.6253 71.8435 33.9118C71.8111 34.1983 71.7151 34.474 71.5625 34.7187L71.4375 34.6562Z" fill="#FCC72B"/>
<path d="M50 89.0312C49.4647 89.0208 48.9356 88.915 48.4375 88.7187C47.9333 88.51 47.4762 88.2017 47.0937 87.8125L27.75 68.4687C27.3739 68.0968 27.0752 67.6539 26.8714 67.1658C26.6676 66.6777 26.5626 66.1539 26.5625 65.625C26.5541 65.0809 26.655 64.5408 26.8593 64.0365C27.0636 63.5322 27.3672 63.0741 27.7519 62.6894C28.1366 62.3046 28.5947 62.0011 29.099 61.7968C29.6033 61.5925 30.1435 61.4915 30.6875 61.5C31.2312 61.4945 31.7707 61.5966 32.2748 61.8004C32.7789 62.0042 33.2378 62.3057 33.625 62.6875L50 79.0312L85.7188 43.3125C86.1059 42.9307 86.5648 42.6292 87.0689 42.4254C87.5731 42.2216 88.1125 42.1195 88.6563 42.125C89.1972 42.126 89.7325 42.2343 90.2314 42.4435C90.7302 42.6527 91.1826 42.9586 91.5625 43.3437C91.9504 43.7215 92.2582 44.1735 92.4676 44.6728C92.677 45.1721 92.7837 45.7085 92.7813 46.25C92.7773 47.3361 92.3515 48.3781 91.5937 49.1562L52.9375 87.8125C52.549 88.1945 52.0935 88.5017 51.5938 88.7187C51.0857 88.918 50.5457 89.0239 50 89.0312Z" fill="#729B1B"/>
<path d="M50 89.0312C50.5353 89.0208 51.0644 88.915 51.5625 88.7187C52.0668 88.51 52.5238 88.2017 52.9063 87.8125L72.25 68.4687C72.6262 68.0968 72.9248 67.6539 73.1286 67.1658C73.3325 66.6777 73.4375 66.1539 73.4375 65.625C73.446 65.0809 73.345 64.5408 73.1407 64.0365C72.9364 63.5322 72.6329 63.0741 72.2482 62.6894C71.8634 62.3046 71.4053 62.0011 70.901 61.7968C70.3968 61.5925 69.8566 61.4915 69.3125 61.5C68.7688 61.4945 68.2294 61.5966 67.7252 61.8004C67.2211 62.0042 66.7622 62.3057 66.375 62.6875L50 79.0312L14.2813 43.3125C13.8941 42.9307 13.4352 42.6292 12.9311 42.4254C12.427 42.2216 11.8875 42.1195 11.3438 42.125C10.8029 42.126 10.2675 42.2343 9.76869 42.4435C9.26986 42.6527 8.81742 42.9586 8.43754 43.3437C8.04963 43.7215 7.7418 44.1735 7.5324 44.6728C7.32301 45.1721 7.21635 45.7085 7.21879 46.25C7.22275 47.3361 7.64854 48.3781 8.40629 49.1562L47.0625 87.8125C47.451 88.1945 47.9065 88.5017 48.4063 88.7187C48.9144 88.918 49.4543 89.0239 50 89.0312Z" fill="#729B1B" fill-opacity="0.5"/>
</svg>
